<?xml version="1.0" encoding="UTF-8" standalone="no"?>
<!-- Created with Inkscape (http://www.inkscape.org/) -->

<svg
   width="300mm"
   height="250mm"
   viewBox="0 0 300 250"
   version="1.1"
   id="svg1"
   xml:space="preserve"
   sodipodi:docname="logo.svg"
   inkscape:version="1.3.2 (091e20e, 2023-11-25, custom)"
   xmlns:inkscape="http://www.inkscape.org/namespaces/inkscape"
   xmlns:sodipodi="http://sodipodi.sourceforge.net/DTD/sodipodi-0.dtd"
   xmlns:xlink="http://www.w3.org/1999/xlink"
   xmlns="http://www.w3.org/2000/svg"
   xmlns:svg="http://www.w3.org/2000/svg"><sodipodi:namedview
     id="namedview1"
     pagecolor="#ffffff"
     bordercolor="#000000"
     borderopacity="0.25"
     inkscape:showpageshadow="2"
     inkscape:pageopacity="0.0"
     inkscape:pagecheckerboard="0"
     inkscape:deskcolor="#d1d1d1"
     inkscape:document-units="mm"
     inkscape:zoom="0.96324077"
     inkscape:cx="580.33258"
     inkscape:cy="512.33296"
     inkscape:window-width="1920"
     inkscape:window-height="1017"
     inkscape:window-x="-8"
     inkscape:window-y="-8"
     inkscape:window-maximized="1"
     inkscape:current-layer="layer1" /><defs
     id="defs1"><linearGradient
       id="linearGradient752"
       inkscape:collect="always"><stop
         style="stop-color:#d8d1d1;stop-opacity:0.92063497;"
         offset="0"
         id="stop752" /><stop
         style="stop-color:#d8d1d1;stop-opacity:0;"
         offset="1"
         id="stop753" /></linearGradient><linearGradient
       id="linearGradient750"
       inkscape:collect="always"><stop
         style="stop-color:#d7d2d2;stop-opacity:0.92063497;"
         offset="0"
         id="stop750" /><stop
         style="stop-color:#d7d2d2;stop-opacity:0;"
         offset="1"
         id="stop751" /></linearGradient><linearGradient
       id="linearGradient748"
       inkscape:collect="always"><stop
         style="stop-color:#d9d2d2;stop-opacity:0.92063497;"
         offset="0"
         id="stop748" /><stop
         style="stop-color:#d9d2d2;stop-opacity:0;"
         offset="1"
         id="stop749" /></linearGradient><linearGradient
       id="linearGradient746"
       inkscape:collect="always"><stop
         style="stop-color:#d8d2d2;stop-opacity:0.92063497;"
         offset="0"
         id="stop746" /><stop
         style="stop-color:#d8d2d2;stop-opacity:0;"
         offset="1"
         id="stop747" /></linearGradient><linearGradient
       id="swatch2"
       inkscape:swatch="solid"><stop
         style="stop-color:#362020;stop-opacity:1;"
         offset="0"
         id="stop2" /></linearGradient><clipPath
       clipPathUnits="userSpaceOnUse"
       id="clipPath709"><rect
         style="opacity:0.221411;fill:#ffff00;fill-opacity:1;stroke:#000000;stroke-width:0.264583;stroke-opacity:1"
         id="rect709"
         width="26.231976"
         height="26.781332"
         x="228.12206"
         y="135.0054" /></clipPath><clipPath
       clipPathUnits="userSpaceOnUse"
       id="clipPath712"><text
         xml:space="preserve"
         style="font-style:normal;font-variant:normal;font-weight:normal;font-stretch:normal;font-size:3.175px;font-family:'Tempus Sans ITC';-inkscape-font-specification:'Tempus Sans ITC';white-space:pre;inline-size:20.7312;display:inline;fill:#666666;fill-opacity:1;stroke:none;stroke-width:0.264583;stroke-opacity:1"
         x="92.704628"
         y="144.2072"
         id="text714"
         transform="translate(-0.12999562,-0.05060372)"><tspan
           x="92.704628"
           y="144.2072"
           id="tspan2"><tspan
             style="font-family:'Bauhaus 93';-inkscape-font-specification:'Bauhaus 93, '"
             id="tspan1">EPower</tspan></tspan></text></clipPath><clipPath
       clipPathUnits="userSpaceOnUse"
       id="clipPath716"><text
         xml:space="preserve"
         style="font-style:normal;font-variant:normal;font-weight:normal;font-stretch:normal;font-size:3.175px;font-family:'Tempus Sans ITC';-inkscape-font-specification:'Tempus Sans ITC';white-space:pre;inline-size:20.7312;display:inline;fill:#666666;fill-opacity:1;stroke:none;stroke-width:0.264583;stroke-opacity:1"
         x="92.704628"
         y="144.2072"
         id="text717"
         transform="translate(-0.18326565,0.01916121)"><tspan
           x="92.704628"
           y="144.2072"
           id="tspan4"><tspan
             style="font-family:'Bauhaus 93';-inkscape-font-specification:'Bauhaus 93, '"
             id="tspan3">EPower</tspan></tspan></text></clipPath><clipPath
       clipPathUnits="userSpaceOnUse"
       id="clipPath737"><path
         id="path737"
         style="opacity:1;fill:#666666;fill-opacity:1;stroke:none;stroke-width:0.316751;stroke-opacity:1"
         d="m 40.370203,192.10227 22.661114,10.87061 -13.170295,27.45508 c -0.143432,-0.22062 -0.30117,-0.44081 -0.478527,-0.66048 -0.635345,-0.66513 -1.239094,-1.18526 -2.118493,-1.6858 -1.044592,-0.66076 -2.118707,-1.29423 -3.107461,-2.01101 -0.966844,-0.71911 -1.867555,-1.47167 -2.61155,-2.30689 -0.773175,-0.86801 -1.632505,-0.98501 -1.864375,-0.61212 -0.139154,0.22373 -0.05243,0.62364 0.413652,1.14378 0.844375,0.94235 1.868048,1.79418 2.956792,2.60934 1.050054,0.76921 2.196239,1.44437 3.309932,2.15014 0.637326,0.34953 1.106086,0.74488 1.549298,1.22154 0.511733,0.69839 0.812521,1.40025 1.018298,2.09527 l -2.871883,5.98679 c -0.554377,-0.43097 -1.068768,-0.90035 -1.495246,-1.30872 -0.587245,-0.59437 -1.023563,-1.19766 -1.118725,-1.82028 -0.0084,-0.8522 0.09127,-1.67361 0.198233,-2.49042 0.110757,-0.6863 0.07754,-1.4516 0.48415,-2.01502 0.24034,-0.32692 0.670468,-0.49783 1.111861,-0.65973 1.435607,-0.52661 0.09503,-1.90619 -1.335351,-1.37423 -0.662124,0.24626 -1.267609,0.53996 -1.613994,1.0378 -0.07216,0.11898 -0.157829,0.23144 -0.218127,0.35645 -0.290317,0.60031 -0.278639,1.3298 -0.390142,1.99761 -0.119519,0.91581 -0.240799,1.83668 -0.186247,2.80429 0.02844,0.1354 0.04483,0.26892 0.08496,0.40597 0.237408,0.81034 0.880485,1.61343 1.609728,2.36553 0.686451,0.65042 1.443404,1.32998 2.284777,1.91853 L 35.899711,259.53211 13.23859,248.6615 Z" /></clipPath><clipPath
       clipPathUnits="userSpaceOnUse"
       id="clipPath738"><path
         id="path738"
         style="opacity:1;fill:#666666;fill-opacity:1;stroke:none;stroke-width:0.316751;stroke-opacity:1"
         d="m 175.09304,-88.743809 22.66111,10.870615 13.1703,-27.455076 c -0.26184,0.0262 -0.5323,0.041 -0.81463,0.0401 -0.91639,-0.0792 -1.69992,-0.2246 -2.64069,-0.5972 -1.16912,-0.40117 -2.33544,-0.84243 -3.5133,-1.16499 -1.16597,-0.30401 -2.31664,-0.5355 -3.4337,-0.59303 -1.16089,-0.0598 -1.78996,-0.65677 -1.64425,-1.07099 0.0874,-0.24855 0.45358,-0.4312 1.15096,-0.39323 1.26343,0.0688 2.56848,0.33405 3.88566,0.67301 1.25711,0.33755 2.50105,0.80894 3.74852,1.23583 0.6715,0.27831 1.27322,0.39648 1.92237,0.44383 0.86498,-0.038 1.60063,-0.24266 2.27149,-0.51715 l 2.87188,-5.98679 c -0.68309,-0.16265 -1.37111,-0.27007 -1.95653,-0.34711 -0.8311,-0.086 -1.5747,-0.0487 -2.11986,0.26671 -0.66993,0.5268 -1.24819,1.11864 -1.8183,1.71328 -0.46594,0.51591 -1.08361,0.96898 -1.26857,1.63873 -0.10455,0.39205 0.0314,0.8345 0.18133,1.28008 0.48778,1.44926 -1.42722,1.26713 -1.90755,-0.18141 -0.22233,-0.67053 -0.37222,-1.32659 -0.20073,-1.90832 0.0476,-0.13075 0.0817,-0.26795 0.14149,-0.39322 0.2865,-0.60213 0.86277,-1.04959 1.31383,-1.55451 0.63946,-0.66639 1.28178,-1.33732 2.07059,-1.90037 0.1234,-0.0626 0.23779,-0.13334 0.3698,-0.18781 0.7806,-0.322 1.80943,-0.32307 2.85242,-0.22502 0.93691,0.12831 1.94068,0.29337 2.92629,0.58123 l 9.57287,-19.95581 -22.66112,-10.87062 z" /></clipPath><clipPath
       clipPathUnits="userSpaceOnUse"
       id="clipPath739"><rect
         style="opacity:1;fill:#666666;fill-opacity:1;stroke:none;stroke-width:0.264583;stroke-opacity:1"
         id="rect739"
         width="64.275208"
         height="28.841438"
         x="155.05707"
         y="136.92818" /></clipPath><clipPath
       clipPathUnits="userSpaceOnUse"
       id="clipPath740"><rect
         style="opacity:1;fill:#666666;fill-opacity:1;stroke:none;stroke-width:0.264583;stroke-opacity:1"
         id="rect740"
         width="64.275208"
         height="28.841438"
         x="155.05707"
         y="136.92818" /></clipPath><clipPath
       clipPathUnits="userSpaceOnUse"
       id="clipPath709-0"><rect
         style="opacity:0.221411;fill:#ffff00;fill-opacity:1;stroke:#000000;stroke-width:0.264583;stroke-opacity:1"
         id="rect709-0"
         width="26.231976"
         height="26.781332"
         x="228.12206"
         y="135.0054" /></clipPath><clipPath
       clipPathUnits="userSpaceOnUse"
       id="clipPath709-7"><rect
         style="opacity:0.221411;fill:#ffff00;fill-opacity:1;stroke:#000000;stroke-width:0.264583;stroke-opacity:1"
         id="rect709-05"
         width="26.231976"
         height="26.781332"
         x="228.12206"
         y="135.0054" /></clipPath><clipPath
       clipPathUnits="userSpaceOnUse"
       id="clipPath741"><path
         style="fill:#800080;fill-opacity:1"
         d="m 217.27659,183.96823 c -0.10005,-0.10004 -0.1819,-0.71141 -0.1819,-1.3586 v -1.1767 l -0.98447,0.95622 c -0.54146,0.52591 -1.13678,0.95621 -1.32292,0.95621 -0.72013,0 -0.2815,-1.00202 0.98447,-2.24896 l 1.32292,-1.30302 v -2.7273 -2.72731 l -1.12448,0.57134 c -0.61846,0.31423 -1.73215,0.95888 -2.47486,1.43255 l -1.35039,0.86123 -0.1747,0.87351 c -0.0961,0.48043 -0.29667,1.32648 -0.44575,1.88011 l -0.27105,1.0066 h -0.51897 c -0.59302,0 -0.62863,-0.25589 -0.23362,-1.67845 0.34082,-1.22744 0.20742,-1.4218 -0.59169,-0.86208 -0.33283,0.23313 -0.81678,0.42386 -1.07545,0.42386 h -0.47029 v -0.49706 -0.49707 l 0.79375,-0.32878 c 1.09834,-0.45495 0.99475,-0.73552 -0.40137,-1.08707 -1.30765,-0.32927 -1.66734,-0.65423 -1.21967,-1.1019 l 0.29078,-0.29077 1.98456,0.46786 1.98457,0.46787 1.12796,-0.66076 c 0.62038,-0.36342 1.63398,-0.93009 2.25244,-1.25927 1.44965,-0.77158 1.45833,-0.74934 -0.79375,-2.03216 -2.6367,-1.5019 -2.61228,-1.49682 -4.71627,-0.98121 l -1.87139,0.4586 -0.27483,-0.27483 c -0.43751,-0.43751 -0.0103,-0.82744 1.2558,-1.14625 1.38755,-0.34939 1.43671,-0.49346 0.38117,-1.11698 l -0.79375,-0.46888 v -0.51421 c 0,-0.66309 0.38036,-0.64933 1.51993,0.055 l 0.92094,0.56917 -0.21057,-0.8999 c -0.79795,-3.41031 0.38256,-3.12532 1.34264,0.32413 l 0.41432,1.48862 2.30585,1.31337 2.30585,1.31338 0.0759,-2.65147 0.0759,-2.65147 -1.3327,-1.34947 c -1.96112,-1.98578 -1.74612,-3.37363 0.24408,-1.57561 l 1.06905,0.96582 v -1.22141 -1.22141 h 0.52917 0.52916 l 0.0399,0.46302 c 0.022,0.25466 0.0143,0.79044 -0.0169,1.19062 -0.0749,0.9585 0.21805,0.9178 1.28,-0.17786 l 0.87762,-0.90548 0.36491,0.14003 c 0.63979,0.24551 0.40105,0.72726 -1.0903,2.20008 l -1.45521,1.43714 v 2.58872 2.58873 h 0.25058 c 0.30178,0 2.12142,-0.9627 3.60575,-1.90764 l 1.0782,-0.6864 0.47854,-1.81184 c 0.2632,-0.99651 0.57664,-1.91989 0.69653,-2.05197 l 0.21797,-0.24014 0.37957,0.31501 0.37957,0.31502 -0.36883,1.22552 c -0.45417,1.50909 -0.40527,1.56318 0.78069,0.86344 0.52288,-0.3085 1.07366,-0.48491 1.22397,-0.39201 0.54372,0.33604 0.25404,0.94917 -0.65275,1.38158 -1.20738,0.57576 -1.1684,0.74891 0.24888,1.10579 1.27114,0.32008 1.69319,0.70887 1.25029,1.15176 l -0.28035,0.28035 -1.55281,-0.43569 c -2.16382,-0.60714 -2.3046,-0.58183 -4.79459,0.86183 l -2.21817,1.28607 2.35046,1.39022 2.35046,1.39022 1.63093,-0.43306 c 0.89701,-0.23818 1.87927,-0.43306 2.18281,-0.43306 h 0.55189 v 0.50591 0.50591 l -0.9976,0.16854 c -0.54868,0.0927 -1.15454,0.26554 -1.34634,0.38408 l -0.34874,0.21553 0.94946,0.5868 c 1.03399,0.63904 1.18437,0.99928 0.5231,1.25303 l -0.42637,0.16361 -0.78258,-0.46227 c -0.94478,-0.5581 -1.11216,-0.44794 -0.75334,0.49585 0.14959,0.39345 0.27199,1.00528 0.27199,1.35961 v 0.64423 h -0.47619 -0.47618 l -0.48764,-1.95824 -0.48763,-1.95824 -2.26366,-1.2829 c -1.24502,-0.7056 -2.37034,-1.32634 -2.50072,-1.37942 l -0.23706,-0.0965 0.0911,2.8043 0.0911,2.80429 1.38907,1.3668 c 0.76398,0.75174 1.38906,1.52753 1.38906,1.72399 0,0.66195 -0.94803,0.36392 -1.86633,-0.5867 l -0.9118,-0.9439 -0.13229,1.25411 c -0.12457,1.18091 -0.46459,1.6684 -0.87643,1.25655 z m 24.05334,-0.0237 c -0.087,-0.087 -0.15816,-0.61456 -0.15816,-1.17239 0,-1.22892 -0.12992,-1.24856 -1.22673,-0.18549 l -0.85506,0.82875 -0.41431,-0.15899 c -0.64549,-0.24769 -0.51804,-0.50504 1.04089,-2.10175 l 1.45521,-1.49048 v -2.65735 c 0,-1.46151 -0.0543,-2.6573 -0.12065,-2.6573 -0.0663,0 -0.69143,0.32866 -1.38906,0.73036 -0.69763,0.4017 -1.56607,0.88461 -1.92987,1.07313 -1.23115,0.63796 -1.46595,0.97093 -1.99086,2.82321 l -0.52386,1.84857 -0.46243,0.0891 -0.46243,0.089 v -0.66363 c 0,-0.365 0.12239,-0.98556 0.27198,-1.37901 0.35517,-0.93418 0.21184,-1.03354 -0.76342,-0.52921 -1.78668,0.92393 -2.3131,0.0312 -0.56893,-0.96478 l 1.05629,-0.60321 -1.38565,-0.40857 -1.38566,-0.40858 -0.0869,-0.45132 -0.0869,-0.45132 0.48242,-6.9e-4 c 0.26533,-3.8e-4 1.2642,0.18899 2.2197,0.42082 l 1.73728,0.42151 2.32854,-1.37536 2.32854,-1.37537 -2.34603,-1.37076 -2.34603,-1.37077 -1.71406,0.47323 c -0.94274,0.26027 -1.925,0.47322 -2.18281,0.47322 h -0.46875 v -0.50471 -0.50472 l 1.32292,-0.33905 c 1.57062,-0.40254 1.61622,-0.53031 0.39687,-1.11178 -0.95015,-0.45309 -1.2205,-1.14752 -0.54732,-1.40584 0.2083,-0.0799 0.74262,0.1237 1.18737,0.45253 1.00708,0.74457 1.11409,0.6427 0.75158,-0.71544 -0.15879,-0.59491 -0.20803,-1.29188 -0.10943,-1.54883 l 0.17927,-0.46717 0.36077,0.29941 c 0.19842,0.16467 0.50462,0.86269 0.68045,1.55115 0.5311,2.07949 0.72425,2.37404 2.0467,3.12127 0.69929,0.39513 1.70497,0.99244 2.23484,1.32737 1.25321,0.79215 1.28556,0.73534 1.28556,-2.25784 v -2.54462 l -1.45521,-1.43714 c -0.80036,-0.79042 -1.4552,-1.59002 -1.4552,-1.77689 0,-0.61293 0.99834,-0.3558 1.76265,0.45398 1.00094,1.0605 1.14776,1.00725 1.14776,-0.41628 v -1.21002 l 0.46302,0.0879 0.46302,0.0879 0.1323,1.16926 0.13229,1.16927 1.03014,-0.97409 1.03015,-0.97408 0.36218,0.30058 0.36218,0.30058 -0.31898,0.42792 c -0.17544,0.23535 -0.83615,0.97225 -1.46825,1.63755 l -1.14927,1.20964 0.0759,2.66807 0.0759,2.66807 2.31485,-1.35341 c 1.27317,-0.74437 2.36776,-1.53684 2.43242,-1.76104 0.0647,-0.2242 0.31134,-1.09224 0.54819,-1.92899 l 0.43063,-1.52135 h 0.54346 0.54347 l -0.15258,0.76288 c -0.0839,0.41959 -0.23648,1.09717 -0.33902,1.50575 l -0.18645,0.74287 0.98772,-0.58277 c 0.54325,-0.32052 1.09764,-0.51484 1.23199,-0.4318 0.47586,0.29409 0.23387,0.88971 -0.54947,1.35245 -1.05744,0.62464 -1.00687,0.76747 0.39687,1.12093 l 1.19063,0.29981 v 0.52535 c 0,0.63328 -0.14113,0.6404 -2.18665,0.11035 -1.93329,-0.50096 -2.29877,-0.42217 -4.67641,1.00818 l -1.85811,1.11781 0.32569,0.31689 c 0.17912,0.17429 1.21045,0.81564 2.29184,1.42522 l 1.96615,1.10834 1.77587,-0.42863 c 2.22262,-0.53646 2.36162,-0.53423 2.36162,0.0378 v 0.46645 l -1.38907,0.41273 -1.38906,0.41273 0.99219,0.49274 0.99219,0.49274 v 0.48016 0.48016 h -0.40619 c -0.2234,0 -0.70337,-0.19472 -1.06659,-0.43271 -0.86956,-0.56976 -1.00389,-0.37506 -0.64944,0.94128 0.3112,1.1557 0.2028,1.6081 -0.38531,1.6081 h -0.35963 l -0.48459,-1.88112 -0.48459,-1.88112 -0.66152,-0.45465 c -0.36384,-0.25006 -1.46519,-0.89766 -2.44746,-1.43912 l -1.78593,-0.98447 v 2.73397 2.73396 l 1.4552,1.43713 c 1.56171,1.54231 1.68401,1.7809 1.03967,2.02815 l -0.41554,0.15946 -1.03967,-1.01521 -1.03966,-1.01521 v 1.21602 1.21601 l -0.37101,0.14237 c -0.20406,0.0783 -0.44218,0.0712 -0.52917,-0.0158 z m -24.05334,-25.64084 c -0.10005,-0.10004 -0.1819,-0.722 -0.1819,-1.38212 v -1.20023 l -1.00334,0.97974 c -0.55184,0.53886 -1.14716,0.97974 -1.32292,0.97974 -0.69373,0 -0.25503,-0.88973 1.00334,-2.03491 l 1.32292,-1.20392 v -2.89838 -2.89837 l -1.38906,0.7758 c -0.76399,0.42669 -1.8941,1.06071 -2.51136,1.40893 -0.61727,0.34823 -1.12328,0.78377 -1.12448,0.96786 -0.001,0.1841 -0.2003,1.04731 -0.44244,1.91823 l -0.44025,1.58351 h -0.51447 -0.51447 l 0.17376,-0.69233 c 0.57852,-2.30503 0.50537,-2.57148 -0.4977,-1.8128 -0.28247,0.21365 -0.73769,0.38846 -1.01158,0.38846 h -0.498 l 0.0855,-0.43739 c 0.0471,-0.24056 0.54818,-0.67733 1.11361,-0.9706 l 1.02805,-0.5332 -1.29264,-0.34064 c -0.71095,-0.18736 -1.38193,-0.3459 -1.49107,-0.35233 -0.26949,-0.0159 -0.25253,-0.74076 0.0213,-0.90999 0.12084,-0.0747 0.86498,0.0359 1.65364,0.24583 2.11939,0.56405 2.42787,0.507 4.90163,-0.90653 l 2.26534,-1.29444 -2.29608,-1.3514 c -2.57662,-1.51651 -2.54517,-1.51005 -4.53485,-0.93163 -0.79416,0.23086 -1.62606,0.34986 -1.84866,0.26444 -0.73202,-0.2809 -0.21226,-0.79699 1.22003,-1.21142 l 1.4086,-0.40758 -1.09478,-0.52479 -1.09477,-0.52479 -0.003,-0.46302 -0.003,-0.46302 h 0.42218 c 0.23219,0 0.78708,0.25984 1.23307,0.57741 l 0.81089,0.57741 -0.19812,-1.04043 c -0.10897,-0.57224 -0.21736,-1.27484 -0.24088,-1.56134 l -0.0428,-0.52091 0.42071,-0.0857 0.4207,-0.0857 0.47685,1.79719 c 0.53959,2.03366 3.60332,4.8399 5.284,4.8399 0.0795,0 0.14462,-1.24202 0.14462,-2.76005 v -2.76004 l -1.32292,-1.25254 c -1.24601,-1.17973 -1.71694,-2.22321 -1.00334,-2.22321 0.17576,0 0.77108,0.44089 1.32292,0.97974 l 1.00334,0.97974 v -1.21601 -1.21602 l 0.37101,-0.14237 c 0.55081,-0.21136 0.68732,0.0509 0.68732,1.32048 0,1.38815 0.1767,1.42246 1.13576,0.22048 0.74954,-0.93939 1.33259,-1.16267 1.65861,-0.63517 l 0.17976,0.29086 -1.48706,1.50275 -1.48707,1.50274 v 2.70431 c 0,1.48737 0.0903,2.70431 0.20057,2.70431 0.11032,0 1.21165,-0.58799 2.4474,-1.30664 l 2.24682,-1.30664 0.55434,-1.93451 0.55433,-1.9345 0.47595,-0.0929 0.47594,-0.0929 -0.17024,1.01893 c -0.0936,0.5604 -0.24943,1.30863 -0.34621,1.66272 l -0.17598,0.6438 0.9763,-0.60338 c 0.94482,-0.58394 1.75662,-0.59631 1.75662,-0.0268 0,0.15245 -0.41672,0.47589 -0.92605,0.71877 -1.17482,0.56023 -1.16361,0.7552 0.0661,1.1513 0.5457,0.17577 1.14606,0.4419 1.33413,0.59139 l 0.34194,0.27181 -0.25799,0.25799 -0.25799,0.25799 -1.96202,-0.46205 -1.96201,-0.46204 -1.16465,0.68453 c -0.64055,0.37649 -1.64089,0.94044 -2.22297,1.25321 -0.58209,0.31277 -1.10918,0.6148 -1.17131,0.67118 -0.17999,0.1633 0.76099,0.78753 2.80345,1.85976 l 1.89673,0.99573 1.91911,-0.46058 1.9191,-0.46059 0.24892,0.24893 c 0.40063,0.40062 0.0207,0.72851 -1.25919,1.08687 -1.43812,0.40265 -1.45621,0.49148 -0.25808,1.2677 0.91539,0.59304 1.01391,1.11546 0.21035,1.11546 -0.22361,0 -0.77161,-0.25993 -1.21778,-0.57763 l -0.81121,-0.57764 0.17506,0.84222 c 0.0963,0.46322 0.25188,1.21147 0.34578,1.66277 l 0.17073,0.82055 -0.49996,-0.0963 -0.49996,-0.0963 -0.52047,-1.89988 -0.52047,-1.89987 -2.34345,-1.33794 c -1.2889,-0.73586 -2.39482,-1.33794 -2.45759,-1.33794 -0.0628,0 -0.11414,1.24061 -0.11414,2.75691 v 2.75691 l 1.45521,1.38886 c 1.55254,1.48174 1.69376,1.75364 1.04089,2.00417 l -0.41431,0.15899 -0.85505,-0.82875 c -1.09909,-1.06528 -1.18017,-1.04782 -1.27767,0.27516 -0.077,1.04488 -0.42314,1.50882 -0.8255,1.10646 z m 24.07708,0 c -0.10004,-0.10004 -0.1819,-0.63831 -0.1819,-1.19614 0,-1.24626 -0.18546,-1.26174 -1.30298,-0.10876 l -0.87762,0.90547 -0.36491,-0.14003 c -0.64051,-0.24579 -0.40059,-0.72771 1.09978,-2.20912 l 1.46468,-1.44617 -0.0395,-2.71198 c -0.0217,-1.49158 -0.0673,-2.71198 -0.10114,-2.71198 -0.0339,0 -1.06214,0.59523 -2.28503,1.32273 -1.2229,0.7275 -2.29097,1.32281 -2.37351,1.32292 -0.0825,10e-5 -0.35828,0.88344 -0.61278,1.96296 l -0.46273,1.96277 -0.37093,0.14234 c -0.69941,0.26839 -0.80294,-1.09086 -0.2023,-2.65611 l 0.15454,-0.40272 -1.10517,0.56381 c -1.79292,0.91468 -2.34814,-0.0246 -0.624,-1.05558 l 0.99218,-0.59331 -1.38906,-0.39275 -1.38906,-0.39274 v -0.3713 c 0,-0.63639 0.68952,-0.67914 2.56024,-0.15871 l 1.80538,0.50224 2.34498,-1.37832 2.34497,-1.37833 -1.81581,-1.05143 c -0.99869,-0.57828 -2.0949,-1.19689 -2.43602,-1.37467 l -0.62022,-0.32324 -1.67814,0.45425 c -1.71809,0.46507 -2.50538,0.40044 -2.50538,-0.20566 v -0.34246 l 1.38906,-0.3962 1.38906,-0.39619 -0.99218,-0.61415 c -0.54571,-0.33777 -0.99219,-0.78302 -0.99219,-0.98943 v -0.3753 h 0.53847 c 0.29617,0 0.83566,0.19472 1.19889,0.43272 0.83959,0.55012 0.96237,0.41319 0.63936,-0.71308 -0.14303,-0.49872 -0.26005,-1.11592 -0.26005,-1.37154 v -0.46478 h 0.48488 0.48488 l 0.48721,1.95658 0.48722,1.95656 2.31575,1.35073 c 1.27367,0.7429 2.38403,1.35073 2.46749,1.35073 0.0834,0 0.15173,-1.19947 0.15173,-2.66548 v -2.66547 l -1.48052,-1.55218 -1.48052,-1.55217 0.17322,-0.28027 c 0.2949,-0.47717 0.80531,-0.31308 1.5972,0.51347 1.00038,1.04418 1.14486,1.00569 1.24155,-0.33072 l 0.0814,-1.12448 h 0.39688 0.39687 l 0.1323,1.17677 0.13229,1.17678 0.9929,-0.87408 0.9929,-0.87408 0.39616,0.15202 c 0.62331,0.23919 0.49287,0.48807 -1.05905,2.02071 l -1.4552,1.43714 v 2.74379 2.74379 l 1.78593,-0.98904 c 0.98227,-0.54398 2.08362,-1.196 2.44746,-1.44894 l 0.66152,-0.4599 0.48459,-1.88112 0.48459,-1.88114 h 0.35963 c 0.58811,0 0.69651,0.45241 0.38531,1.60812 -0.35084,1.30293 -0.23047,1.49763 0.57648,0.93242 0.33283,-0.23312 0.81678,-0.42386 1.07544,-0.42386 h 0.4703 l -0.003,0.46302 -0.003,0.46302 -0.97143,0.55742 -0.97143,0.55741 1.37172,0.32907 c 1.47297,0.35336 1.86849,0.67706 1.39989,1.14567 l -0.2945,0.2945 -1.95144,-0.48595 -1.95144,-0.48594 -2.2801,1.29287 c -2.74231,1.55496 -2.71445,1.34995 -0.36536,2.68803 2.6367,1.5019 2.61228,1.49682 4.71628,0.98121 l 1.87138,-0.45861 0.27484,0.27484 c 0.4375,0.4375 0.0103,0.82744 -1.2558,1.14625 -1.25442,0.31586 -1.48918,0.62679 -0.66965,0.8869 0.70766,0.2246 1.17024,0.85179 0.98475,1.33517 l -0.15667,0.40828 -1.06355,-0.54258 c -0.58496,-0.29842 -1.06355,-0.47382 -1.06355,-0.38979 0,0.084 0.13514,0.68951 0.30031,1.34548 l 0.30032,1.19268 -0.23638,0.23638 c -0.45055,0.45055 -0.90616,-0.18468 -1.41923,-1.97878 -0.28354,-0.99152 -0.54913,-1.8316 -0.59018,-1.86686 -0.041,-0.0352 -1.08667,-0.67108 -2.32359,-1.41295 l -2.24896,-1.34886 -0.0758,2.67133 -0.0758,2.67134 1.49086,1.56301 1.49086,1.56301 -0.32038,0.38604 -0.32039,0.38604 -0.72134,-0.51364 c -0.39674,-0.2825 -0.88936,-0.7176 -1.09472,-0.96688 l -0.37337,-0.45323 -0.13229,1.14794 c -0.12555,1.08942 -0.47663,1.55026 -0.87644,1.15045 z"
         id="path741"
         clip-path="url(#clipPath709-7)"
         transform="translate(0.35605431,0.10545764)" /></clipPath><clipPath
       clipPathUnits="userSpaceOnUse"
       id="clipPath742"><path
         style="fill:#339feb;fill-opacity:1;stroke-width:1.0659"
         d="m 201.32998,208.56997 -1.77694,-0.35632 -2.10341,-0.95443 -2.10342,-0.95431 -1.34119,-1.28812 -1.3413,-1.28807 -0.76154,-1.38994 c -0.4188,-0.76444 -0.89972,-1.90743 -1.06853,-2.53989 l -0.30702,-1.14998 -0.004,-2.22742 -0.004,-2.2275 0.46338,-1.70337 0.46336,-1.70339 1.1796,-2.10746 1.17952,-2.10749 1.44329,-1.69233 c 1.62052,-1.90002 3.14673,-4.27688 3.16507,-4.92909 l 0.0107,-0.432 0.51898,0.78619 0.51901,0.78615 -0.018,2.81387 -0.0179,2.81388 0.92455,-0.61557 0.92454,-0.61562 0.68945,-1.12577 0.68944,-1.12575 -10e-4,-1.59666 -0.001,-1.59661 -0.60487,-2.17856 -0.60488,-2.17854 0.004,-1.62127 0.004,-1.62127 0.70584,-1.31029 0.70585,-1.31024 0.6999,1.17756 0.69986,1.17762 2.97396,2.49122 2.97398,2.49112 0.84286,1.57235 0.84284,1.57238 0.16072,2.35851 0.16071,2.35845 0.87056,-1.17924 c 0.47879,-0.64857 1.28205,-1.55461 1.78495,-2.01343 l 0.91445,-0.83412 0.8804,-0.31483 c 1.16089,-0.41516 1.19046,-0.35622 0.66624,1.32835 l -0.44849,1.44097 0.17512,1.39613 0.17513,1.39615 1.4815,3.32085 c 0.81481,1.82645 1.6311,3.79257 1.81394,4.36907 l 0.33225,1.04826 0.001,2.30125 0.001,2.30124 -0.63025,1.61545 -0.63028,1.61541 -1.07412,1.39725 -1.07412,1.39731 -1.25473,0.87824 c -1.27191,0.89025 -3.55064,1.98971 -4.12393,1.98971 h -0.31351 l 1.10632,-1.24476 c 1.25549,-1.41255 2.13741,-3.00121 2.7269,-4.91219 l 0.40456,-1.31164 0.004,-1.90832 0.004,-1.90832 -0.4708,-0.97276 -0.47065,-0.97276 -0.55605,1.04671 -0.55601,1.04663 -1.40132,1.16833 -1.4012,1.16832 v 0.60056 0.60055 h -0.26629 c -0.14636,0 -0.45379,-0.1949 -0.68287,-0.43402 l -0.41651,-0.43411 v -3.30019 -3.30024 l -0.72319,-1.26829 -0.72314,-1.26835 -1.21927,-0.76261 c -0.67059,-0.41941 -1.31529,-0.76259 -1.4327,-0.76259 h -0.21332 l 0.14096,1.26404 0.14095,1.26407 -0.64455,1.09082 c -0.35457,0.59998 -1.0465,1.63822 -1.53788,2.30717 l -0.89337,1.21633 -0.35386,1.3653 -0.35386,1.36526 0.45934,1.35285 c 0.51352,1.51265 0.5221,1.50018 -0.66859,0.96852 l -0.86064,-0.3843 -1.2488,-1.22493 -1.24877,-1.22492 V 198.35 197.99378 h -0.30378 -0.30376 v 1.69419 1.69424 l 0.49144,1.24984 c 0.61753,1.57051 2.10019,3.58509 3.72169,5.0569 1.50073,1.36212 1.53006,1.32409 -0.67893,0.88102 z"
         id="path742" /></clipPath><linearGradient
       inkscape:collect="always"
       xlink:href="#linearGradient746"
       id="linearGradient747"
       x1="176.89417"
       y1="117.83788"
       x2="187.88138"
       y2="118.66192"
       gradientUnits="userSpaceOnUse" /><linearGradient
       inkscape:collect="always"
       xlink:href="#linearGradient748"
       id="linearGradient749"
       x1="158.76526"
       y1="118.11256"
       x2="167.55502"
       y2="118.11256"
       gradientUnits="userSpaceOnUse" /><linearGradient
       inkscape:collect="always"
       xlink:href="#linearGradient750"
       id="linearGradient751"
       x1="138.71359"
       y1="116.1898"
       x2="148.32741"
       y2="116.73916"
       gradientUnits="userSpaceOnUse" /><linearGradient
       inkscape:collect="always"
       xlink:href="#linearGradient752"
       id="linearGradient753"
       x1="119.21128"
       y1="99.983658"
       x2="133.49466"
       y2="97.786209"
       gradientUnits="userSpaceOnUse" /></defs><g
     inkscape:label="Layer 1"
     inkscape:groupmode="layer"
     id="layer1"><path
       style="fill:#06bee1;fill-opacity:1"
       d="m 217.27659,183.96823 c -0.10005,-0.10004 -0.1819,-0.71141 -0.1819,-1.3586 v -1.1767 l -0.98447,0.95622 c -0.54146,0.52591 -1.13678,0.95621 -1.32292,0.95621 -0.72013,0 -0.2815,-1.00202 0.98447,-2.24896 l 1.32292,-1.30302 v -2.7273 -2.72731 l -1.12448,0.57134 c -0.61846,0.31423 -1.73215,0.95888 -2.47486,1.43255 l -1.35039,0.86123 -0.1747,0.87351 c -0.0961,0.48043 -0.29667,1.32648 -0.44575,1.88011 l -0.27105,1.0066 h -0.51897 c -0.59302,0 -0.62863,-0.25589 -0.23362,-1.67845 0.34082,-1.22744 0.20742,-1.4218 -0.59169,-0.86208 -0.33283,0.23313 -0.81678,0.42386 -1.07545,0.42386 h -0.47029 v -0.49706 -0.49707 l 0.79375,-0.32878 c 1.09834,-0.45495 0.99475,-0.73552 -0.40137,-1.08707 -1.30765,-0.32927 -1.66734,-0.65423 -1.21967,-1.1019 l 0.29078,-0.29077 1.98456,0.46786 1.98457,0.46787 1.12796,-0.66076 c 0.62038,-0.36342 1.63398,-0.93009 2.25244,-1.25927 1.44965,-0.77158 1.45833,-0.74934 -0.79375,-2.03216 -2.6367,-1.5019 -2.61228,-1.49682 -4.71627,-0.98121 l -1.87139,0.4586 -0.27483,-0.27483 c -0.43751,-0.43751 -0.0103,-0.82744 1.2558,-1.14625 1.38755,-0.34939 1.43671,-0.49346 0.38117,-1.11698 l -0.79375,-0.46888 v -0.51421 c 0,-0.66309 0.38036,-0.64933 1.51993,0.055 l 0.92094,0.56917 -0.21057,-0.8999 c -0.79795,-3.41031 0.38256,-3.12532 1.34264,0.32413 l 0.41432,1.48862 2.30585,1.31337 2.30585,1.31338 0.0759,-2.65147 0.0759,-2.65147 -1.3327,-1.34947 c -1.96112,-1.98578 -1.74612,-3.37363 0.24408,-1.57561 l 1.06905,0.96582 v -1.22141 -1.22141 h 0.52917 0.52916 l 0.0399,0.46302 c 0.022,0.25466 0.0143,0.79044 -0.0169,1.19062 -0.0749,0.9585 0.21805,0.9178 1.28,-0.17786 l 0.87762,-0.90548 0.36491,0.14003 c 0.63979,0.24551 0.40105,0.72726 -1.0903,2.20008 l -1.45521,1.43714 v 2.58872 2.58873 h 0.25058 c 0.30178,0 2.12142,-0.9627 3.60575,-1.90764 l 1.0782,-0.6864 0.47854,-1.81184 c 0.2632,-0.99651 0.57664,-1.91989 0.69653,-2.05197 l 0.21797,-0.24014 0.37957,0.31501 0.37957,0.31502 -0.36883,1.22552 c -0.45417,1.50909 -0.40527,1.56318 0.78069,0.86344 0.52288,-0.3085 1.07366,-0.48491 1.22397,-0.39201 0.54372,0.33604 0.25404,0.94917 -0.65275,1.38158 -1.20738,0.57576 -1.1684,0.74891 0.24888,1.10579 1.27114,0.32008 1.69319,0.70887 1.25029,1.15176 l -0.28035,0.28035 -1.55281,-0.43569 c -2.16382,-0.60714 -2.3046,-0.58183 -4.79459,0.86183 l -2.21817,1.28607 2.35046,1.39022 2.35046,1.39022 1.63093,-0.43306 c 0.89701,-0.23818 1.87927,-0.43306 2.18281,-0.43306 h 0.55189 v 0.50591 0.50591 l -0.9976,0.16854 c -0.54868,0.0927 -1.15454,0.26554 -1.34634,0.38408 l -0.34874,0.21553 0.94946,0.5868 c 1.03399,0.63904 1.18437,0.99928 0.5231,1.25303 l -0.42637,0.16361 -0.78258,-0.46227 c -0.94478,-0.5581 -1.11216,-0.44794 -0.75334,0.49585 0.14959,0.39345 0.27199,1.00528 0.27199,1.35961 v 0.64423 h -0.47619 -0.47618 l -0.48764,-1.95824 -0.48763,-1.95824 -2.26366,-1.2829 c -1.24502,-0.7056 -2.37034,-1.32634 -2.50072,-1.37942 l -0.23706,-0.0965 0.0911,2.8043 0.0911,2.80429 1.38907,1.3668 c 0.76398,0.75174 1.38906,1.52753 1.38906,1.72399 0,0.66195 -0.94803,0.36392 -1.86633,-0.5867 l -0.9118,-0.9439 -0.13229,1.25411 c -0.12457,1.18091 -0.46459,1.6684 -0.87643,1.25655 z m 24.05334,-0.0237 c -0.087,-0.087 -0.15816,-0.61456 -0.15816,-1.17239 0,-1.22892 -0.12992,-1.24856 -1.22673,-0.18549 l -0.85506,0.82875 -0.41431,-0.15899 c -0.64549,-0.24769 -0.51804,-0.50504 1.04089,-2.10175 l 1.45521,-1.49048 v -2.65735 c 0,-1.46151 -0.0543,-2.6573 -0.12065,-2.6573 -0.0663,0 -0.69143,0.32866 -1.38906,0.73036 -0.69763,0.4017 -1.56607,0.88461 -1.92987,1.07313 -1.23115,0.63796 -1.46595,0.97093 -1.99086,2.82321 l -0.52386,1.84857 -0.46243,0.0891 -0.46243,0.089 v -0.66363 c 0,-0.365 0.12239,-0.98556 0.27198,-1.37901 0.35517,-0.93418 0.21184,-1.03354 -0.76342,-0.52921 -1.78668,0.92393 -2.3131,0.0312 -0.56893,-0.96478 l 1.05629,-0.60321 -1.38565,-0.40857 -1.38566,-0.40858 -0.0869,-0.45132 -0.0869,-0.45132 0.48242,-6.9e-4 c 0.26533,-3.8e-4 1.2642,0.18899 2.2197,0.42082 l 1.73728,0.42151 2.32854,-1.37536 2.32854,-1.37537 -2.34603,-1.37076 -2.34603,-1.37077 -1.71406,0.47323 c -0.94274,0.26027 -1.925,0.47322 -2.18281,0.47322 h -0.46875 v -0.50471 -0.50472 l 1.32292,-0.33905 c 1.57062,-0.40254 1.61622,-0.53031 0.39687,-1.11178 -0.95015,-0.45309 -1.2205,-1.14752 -0.54732,-1.40584 0.2083,-0.0799 0.74262,0.1237 1.18737,0.45253 1.00708,0.74457 1.11409,0.6427 0.75158,-0.71544 -0.15879,-0.59491 -0.20803,-1.29188 -0.10943,-1.54883 l 0.17927,-0.46717 0.36077,0.29941 c 0.19842,0.16467 0.50462,0.86269 0.68045,1.55115 0.5311,2.07949 0.72425,2.37404 2.0467,3.12127 0.69929,0.39513 1.70497,0.99244 2.23484,1.32737 1.25321,0.79215 1.28556,0.73534 1.28556,-2.25784 v -2.54462 l -1.45521,-1.43714 c -0.80036,-0.79042 -1.4552,-1.59002 -1.4552,-1.77689 0,-0.61293 0.99834,-0.3558 1.76265,0.45398 1.00094,1.0605 1.14776,1.00725 1.14776,-0.41628 v -1.21002 l 0.46302,0.0879 0.46302,0.0879 0.1323,1.16926 0.13229,1.16927 1.03014,-0.97409 1.03015,-0.97408 0.36218,0.30058 0.36218,0.30058 -0.31898,0.42792 c -0.17544,0.23535 -0.83615,0.97225 -1.46825,1.63755 l -1.14927,1.20964 0.0759,2.66807 0.0759,2.66807 2.31485,-1.35341 c 1.27317,-0.74437 2.36776,-1.53684 2.43242,-1.76104 0.0647,-0.2242 0.31134,-1.09224 0.54819,-1.92899 l 0.43063,-1.52135 h 0.54346 0.54347 l -0.15258,0.76288 c -0.0839,0.41959 -0.23648,1.09717 -0.33902,1.50575 l -0.18645,0.74287 0.98772,-0.58277 c 0.54325,-0.32052 1.09764,-0.51484 1.23199,-0.4318 0.47586,0.29409 0.23387,0.88971 -0.54947,1.35245 -1.05744,0.62464 -1.00687,0.76747 0.39687,1.12093 l 1.19063,0.29981 v 0.52535 c 0,0.63328 -0.14113,0.6404 -2.18665,0.11035 -1.93329,-0.50096 -2.29877,-0.42217 -4.67641,1.00818 l -1.85811,1.11781 0.32569,0.31689 c 0.17912,0.17429 1.21045,0.81564 2.29184,1.42522 l 1.96615,1.10834 1.77587,-0.42863 c 2.22262,-0.53646 2.36162,-0.53423 2.36162,0.0378 v 0.46645 l -1.38907,0.41273 -1.38906,0.41273 0.99219,0.49274 0.99219,0.49274 v 0.48016 0.48016 h -0.40619 c -0.2234,0 -0.70337,-0.19472 -1.06659,-0.43271 -0.86956,-0.56976 -1.00389,-0.37506 -0.64944,0.94128 0.3112,1.1557 0.2028,1.6081 -0.38531,1.6081 h -0.35963 l -0.48459,-1.88112 -0.48459,-1.88112 -0.66152,-0.45465 c -0.36384,-0.25006 -1.46519,-0.89766 -2.44746,-1.43912 l -1.78593,-0.98447 v 2.73397 2.73396 l 1.4552,1.43713 c 1.56171,1.54231 1.68401,1.7809 1.03967,2.02815 l -0.41554,0.15946 -1.03967,-1.01521 -1.03966,-1.01521 v 1.21602 1.21601 l -0.37101,0.14237 c -0.20406,0.0783 -0.44218,0.0712 -0.52917,-0.0158 z m -24.05334,-25.64084 c -0.10005,-0.10004 -0.1819,-0.722 -0.1819,-1.38212 v -1.20023 l -1.00334,0.97974 c -0.55184,0.53886 -1.14716,0.97974 -1.32292,0.97974 -0.69373,0 -0.25503,-0.88973 1.00334,-2.03491 l 1.32292,-1.20392 v -2.89838 -2.89837 l -1.38906,0.7758 c -0.76399,0.42669 -1.8941,1.06071 -2.51136,1.40893 -0.61727,0.34823 -1.12328,0.78377 -1.12448,0.96786 -0.001,0.1841 -0.2003,1.04731 -0.44244,1.91823 l -0.44025,1.58351 h -0.51447 -0.51447 l 0.17376,-0.69233 c 0.57852,-2.30503 0.50537,-2.57148 -0.4977,-1.8128 -0.28247,0.21365 -0.73769,0.38846 -1.01158,0.38846 h -0.498 l 0.0855,-0.43739 c 0.0471,-0.24056 0.54818,-0.67733 1.11361,-0.9706 l 1.02805,-0.5332 -1.29264,-0.34064 c -0.71095,-0.18736 -1.38193,-0.3459 -1.49107,-0.35233 -0.26949,-0.0159 -0.25253,-0.74076 0.0213,-0.90999 0.12084,-0.0747 0.86498,0.0359 1.65364,0.24583 2.11939,0.56405 2.42787,0.507 4.90163,-0.90653 l 2.26534,-1.29444 -2.29608,-1.3514 c -2.57662,-1.51651 -2.54517,-1.51005 -4.53485,-0.93163 -0.79416,0.23086 -1.62606,0.34986 -1.84866,0.26444 -0.73202,-0.2809 -0.21226,-0.79699 1.22003,-1.21142 l 1.4086,-0.40758 -1.09478,-0.52479 -1.09477,-0.52479 -0.003,-0.46302 -0.003,-0.46302 h 0.42218 c 0.23219,0 0.78708,0.25984 1.23307,0.57741 l 0.81089,0.57741 -0.19812,-1.04043 c -0.10897,-0.57224 -0.21736,-1.27484 -0.24088,-1.56134 l -0.0428,-0.52091 0.42071,-0.0857 0.4207,-0.0857 0.47685,1.79719 c 0.53959,2.03366 3.60332,4.8399 5.284,4.8399 0.0795,0 0.14462,-1.24202 0.14462,-2.76005 v -2.76004 l -1.32292,-1.25254 c -1.24601,-1.17973 -1.71694,-2.22321 -1.00334,-2.22321 0.17576,0 0.77108,0.44089 1.32292,0.97974 l 1.00334,0.97974 v -1.21601 -1.21602 l 0.37101,-0.14237 c 0.55081,-0.21136 0.68732,0.0509 0.68732,1.32048 0,1.38815 0.1767,1.42246 1.13576,0.22048 0.74954,-0.93939 1.33259,-1.16267 1.65861,-0.63517 l 0.17976,0.29086 -1.48706,1.50275 -1.48707,1.50274 v 2.70431 c 0,1.48737 0.0903,2.70431 0.20057,2.70431 0.11032,0 1.21165,-0.58799 2.4474,-1.30664 l 2.24682,-1.30664 0.55434,-1.93451 0.55433,-1.9345 0.47595,-0.0929 0.47594,-0.0929 -0.17024,1.01893 c -0.0936,0.5604 -0.24943,1.30863 -0.34621,1.66272 l -0.17598,0.6438 0.9763,-0.60338 c 0.94482,-0.58394 1.75662,-0.59631 1.75662,-0.0268 0,0.15245 -0.41672,0.47589 -0.92605,0.71877 -1.17482,0.56023 -1.16361,0.7552 0.0661,1.1513 0.5457,0.17577 1.14606,0.4419 1.33413,0.59139 l 0.34194,0.27181 -0.25799,0.25799 -0.25799,0.25799 -1.96202,-0.46205 -1.96201,-0.46204 -1.16465,0.68453 c -0.64055,0.37649 -1.64089,0.94044 -2.22297,1.25321 -0.58209,0.31277 -1.10918,0.6148 -1.17131,0.67118 -0.17999,0.1633 0.76099,0.78753 2.80345,1.85976 l 1.89673,0.99573 1.91911,-0.46058 1.9191,-0.46059 0.24892,0.24893 c 0.40063,0.40062 0.0207,0.72851 -1.25919,1.08687 -1.43812,0.40265 -1.45621,0.49148 -0.25808,1.2677 0.91539,0.59304 1.01391,1.11546 0.21035,1.11546 -0.22361,0 -0.77161,-0.25993 -1.21778,-0.57763 l -0.81121,-0.57764 0.17506,0.84222 c 0.0963,0.46322 0.25188,1.21147 0.34578,1.66277 l 0.17073,0.82055 -0.49996,-0.0963 -0.49996,-0.0963 -0.52047,-1.89988 -0.52047,-1.89987 -2.34345,-1.33794 c -1.2889,-0.73586 -2.39482,-1.33794 -2.45759,-1.33794 -0.0628,0 -0.11414,1.24061 -0.11414,2.75691 v 2.75691 l 1.45521,1.38886 c 1.55254,1.48174 1.69376,1.75364 1.04089,2.00417 l -0.41431,0.15899 -0.85505,-0.82875 c -1.09909,-1.06528 -1.18017,-1.04782 -1.27767,0.27516 -0.077,1.04488 -0.42314,1.50882 -0.8255,1.10646 z m 24.07708,0 c -0.10004,-0.10004 -0.1819,-0.63831 -0.1819,-1.19614 0,-1.24626 -0.18546,-1.26174 -1.30298,-0.10876 l -0.87762,0.90547 -0.36491,-0.14003 c -0.64051,-0.24579 -0.40059,-0.72771 1.09978,-2.20912 l 1.46468,-1.44617 -0.0395,-2.71198 c -0.0217,-1.49158 -0.0673,-2.71198 -0.10114,-2.71198 -0.0339,0 -1.06214,0.59523 -2.28503,1.32273 -1.2229,0.7275 -2.29097,1.32281 -2.37351,1.32292 -0.0825,10e-5 -0.35828,0.88344 -0.61278,1.96296 l -0.46273,1.96277 -0.37093,0.14234 c -0.69941,0.26839 -0.80294,-1.09086 -0.2023,-2.65611 l 0.15454,-0.40272 -1.10517,0.56381 c -1.79292,0.91468 -2.34814,-0.0246 -0.624,-1.05558 l 0.99218,-0.59331 -1.38906,-0.39275 -1.38906,-0.39274 v -0.3713 c 0,-0.63639 0.68952,-0.67914 2.56024,-0.15871 l 1.80538,0.50224 2.34498,-1.37832 2.34497,-1.37833 -1.81581,-1.05143 c -0.99869,-0.57828 -2.0949,-1.19689 -2.43602,-1.37467 l -0.62022,-0.32324 -1.67814,0.45425 c -1.71809,0.46507 -2.50538,0.40044 -2.50538,-0.20566 v -0.34246 l 1.38906,-0.3962 1.38906,-0.39619 -0.99218,-0.61415 c -0.54571,-0.33777 -0.99219,-0.78302 -0.99219,-0.98943 v -0.3753 h 0.53847 c 0.29617,0 0.83566,0.19472 1.19889,0.43272 0.83959,0.55012 0.96237,0.41319 0.63936,-0.71308 -0.14303,-0.49872 -0.26005,-1.11592 -0.26005,-1.37154 v -0.46478 h 0.48488 0.48488 l 0.48721,1.95658 0.48722,1.95656 2.31575,1.35073 c 1.27367,0.7429 2.38403,1.35073 2.46749,1.35073 0.0834,0 0.15173,-1.19947 0.15173,-2.66548 v -2.66547 l -1.48052,-1.55218 -1.48052,-1.55217 0.17322,-0.28027 c 0.2949,-0.47717 0.80531,-0.31308 1.5972,0.51347 1.00038,1.04418 1.14486,1.00569 1.24155,-0.33072 l 0.0814,-1.12448 h 0.39688 0.39687 l 0.1323,1.17677 0.13229,1.17678 0.9929,-0.87408 0.9929,-0.87408 0.39616,0.15202 c 0.62331,0.23919 0.49287,0.48807 -1.05905,2.02071 l -1.4552,1.43714 v 2.74379 2.74379 l 1.78593,-0.98904 c 0.98227,-0.54398 2.08362,-1.196 2.44746,-1.44894 l 0.66152,-0.4599 0.48459,-1.88112 0.48459,-1.88114 h 0.35963 c 0.58811,0 0.69651,0.45241 0.38531,1.60812 -0.35084,1.30293 -0.23047,1.49763 0.57648,0.93242 0.33283,-0.23312 0.81678,-0.42386 1.07544,-0.42386 h 0.4703 l -0.003,0.46302 -0.003,0.46302 -0.97143,0.55742 -0.97143,0.55741 1.37172,0.32907 c 1.47297,0.35336 1.86849,0.67706 1.39989,1.14567 l -0.2945,0.2945 -1.95144,-0.48595 -1.95144,-0.48594 -2.2801,1.29287 c -2.74231,1.55496 -2.71445,1.34995 -0.36536,2.68803 2.6367,1.5019 2.61228,1.49682 4.71628,0.98121 l 1.87138,-0.45861 0.27484,0.27484 c 0.4375,0.4375 0.0103,0.82744 -1.2558,1.14625 -1.25442,0.31586 -1.48918,0.62679 -0.66965,0.8869 0.70766,0.2246 1.17024,0.85179 0.98475,1.33517 l -0.15667,0.40828 -1.06355,-0.54258 c -0.58496,-0.29842 -1.06355,-0.47382 -1.06355,-0.38979 0,0.084 0.13514,0.68951 0.30031,1.34548 l 0.30032,1.19268 -0.23638,0.23638 c -0.45055,0.45055 -0.90616,-0.18468 -1.41923,-1.97878 -0.28354,-0.99152 -0.54913,-1.8316 -0.59018,-1.86686 -0.041,-0.0352 -1.08667,-0.67108 -2.32359,-1.41295 l -2.24896,-1.34886 -0.0758,2.67133 -0.0758,2.67134 1.49086,1.56301 1.49086,1.56301 -0.32038,0.38604 -0.32039,0.38604 -0.72134,-0.51364 c -0.39674,-0.2825 -0.88936,-0.7176 -1.09472,-0.96688 l -0.37337,-0.45323 -0.13229,1.14794 c -0.12555,1.08942 -0.47663,1.55026 -0.87644,1.15045 z"
       id="path708"
       clip-path="url(#clipPath709)"
       transform="matrix(1.5335067,0,0,1.4939288,-283.4083,-81.151402)" /><path
       style="fill:#eb3333;fill-opacity:1;stroke-width:1.0659"
       d="m 213.99348,154.93011 -1.77694,-0.35632 -2.10341,-0.95443 -2.10342,-0.95431 -1.34119,-1.28812 -1.3413,-1.28807 -0.76154,-1.38994 c -0.4188,-0.76444 -0.89972,-1.90743 -1.06853,-2.53989 l -0.30702,-1.14998 -0.004,-2.22742 -0.004,-2.2275 0.46338,-1.70337 0.46336,-1.70339 1.1796,-2.10746 1.17952,-2.10749 1.44329,-1.69233 c 1.62052,-1.90002 3.14673,-4.27688 3.16507,-4.92909 l 0.0107,-0.432 0.51898,0.78619 0.51901,0.78615 -0.018,2.81387 -0.0179,2.81388 0.92454,-0.61557 0.92455,-0.61562 0.68944,-1.12577 0.68945,-1.12575 -10e-4,-1.59666 -0.001,-1.59661 -0.60487,-2.17856 -0.60488,-2.17854 0.004,-1.62127 0.004,-1.62127 0.70584,-1.31029 0.70585,-1.31024 0.6999,1.17756 0.69986,1.17762 2.97396,2.49122 2.97398,2.49112 0.84286,1.57235 0.84284,1.57238 0.16072,2.35851 0.16071,2.35845 0.87056,-1.17924 c 0.47879,-0.64857 1.28205,-1.55461 1.78495,-2.01343 l 0.91445,-0.83412 0.8804,-0.31483 c 1.16089,-0.41516 1.19046,-0.35622 0.66624,1.32835 l -0.44849,1.44097 0.17512,1.39613 0.17513,1.39615 1.4815,3.32085 c 0.81481,1.82645 1.6311,3.79257 1.81394,4.36907 l 0.33225,1.04826 0.001,2.30125 0.001,2.30124 -0.63025,1.61545 -0.63028,1.61541 -1.07413,1.39725 -1.07411,1.39731 -1.25473,0.87824 c -1.27191,0.89025 -3.55064,1.98971 -4.12394,1.98971 h -0.31351 l 1.10633,-1.24476 c 1.25549,-1.41255 2.13741,-3.00121 2.7269,-4.91219 l 0.40456,-1.31164 0.004,-1.90832 0.004,-1.90832 -0.4708,-0.97276 -0.47065,-0.97276 -0.55605,1.04671 -0.55601,1.04663 -1.40132,1.16833 -1.4012,1.16832 v 0.60056 0.60055 h -0.26629 c -0.14636,0 -0.45379,-0.1949 -0.68287,-0.43402 l -0.41651,-0.43411 v -3.30019 -3.30024 l -0.72319,-1.26829 -0.72314,-1.26835 -1.21927,-0.76261 c -0.67059,-0.41941 -1.31529,-0.76259 -1.4327,-0.76259 h -0.21332 l 0.14096,1.26404 0.14095,1.26407 -0.64455,1.09082 c -0.35457,0.59998 -1.0465,1.63822 -1.53788,2.30717 l -0.89337,1.21633 -0.35386,1.3653 -0.35386,1.36526 0.45934,1.35285 c 0.51352,1.51265 0.5221,1.50018 -0.66859,0.96852 l -0.86064,-0.3843 -1.2488,-1.22493 -1.24877,-1.22492 v -0.35619 -0.35622 h -0.30378 -0.30376 v 1.69419 1.69424 l 0.49144,1.24984 c 0.61753,1.57051 2.10019,3.58509 3.72169,5.0569 1.50073,1.36212 1.53006,1.32409 -0.67893,0.88102 z"
       id="path707" /><path
       style="fill:#fb2d2d;fill-opacity:1;stroke-width:1.0659"
       d="m 202.03173,210.30184 -1.77694,-0.35632 -2.10341,-0.95443 -2.10342,-0.95431 -1.34119,-1.28812 -1.3413,-1.28807 -0.76154,-1.38994 c -0.4188,-0.76444 -0.89972,-1.90743 -1.06853,-2.53989 l -0.30702,-1.14998 -0.004,-2.22742 -0.004,-2.2275 0.46338,-1.70337 0.46336,-1.70339 1.1796,-2.10746 1.17952,-2.10749 1.44329,-1.69233 c 1.62052,-1.90002 3.14673,-4.27688 3.16507,-4.92909 l 0.0107,-0.432 0.51898,0.78619 0.51901,0.78615 -0.018,2.81387 -0.0179,2.81388 0.92454,-0.61557 0.92455,-0.61562 0.68944,-1.12577 0.68945,-1.12575 -0.001,-1.59666 -10e-4,-1.59661 -0.60487,-2.17856 -0.60488,-2.17854 0.004,-1.62127 0.004,-1.62127 0.70584,-1.31029 0.70585,-1.31024 0.6999,1.17756 0.69986,1.17762 2.97396,2.49122 2.97398,2.49112 0.84286,1.57235 0.84284,1.57238 0.16072,2.35851 0.16071,2.35845 0.87056,-1.17924 c 0.47879,-0.64857 1.28205,-1.55461 1.78495,-2.01343 l 0.91445,-0.83412 0.8804,-0.31483 c 1.16089,-0.41516 1.19046,-0.35622 0.66624,1.32835 l -0.44849,1.44097 0.17512,1.39613 0.17513,1.39615 1.4815,3.32085 c 0.81481,1.82645 1.6311,3.79257 1.81394,4.36907 l 0.33225,1.04826 0.001,2.30125 0.001,2.30124 -0.63025,1.61545 -0.63028,1.61541 -1.07413,1.39725 -1.07411,1.39731 -1.25473,0.87824 c -1.27191,0.89025 -3.55064,1.98971 -4.12394,1.98971 h -0.31351 l 1.10633,-1.24476 c 1.25549,-1.41255 2.13741,-3.00121 2.7269,-4.91219 l 0.40456,-1.31164 0.004,-1.90832 0.004,-1.90832 -0.4708,-0.97276 -0.47065,-0.97276 -0.55605,1.04671 -0.55601,1.04663 -1.40132,1.16833 -1.4012,1.16832 v 0.60056 0.60055 h -0.26629 c -0.14636,0 -0.45379,-0.1949 -0.68287,-0.43402 l -0.41651,-0.43411 v -3.30019 -3.30024 l -0.72319,-1.26829 -0.72314,-1.26835 -1.21927,-0.76261 c -0.67059,-0.41941 -1.31529,-0.76259 -1.4327,-0.76259 h -0.21332 l 0.14096,1.26404 0.14095,1.26407 -0.64455,1.09082 c -0.35457,0.59998 -1.0465,1.63822 -1.53788,2.30717 l -0.89337,1.21633 -0.35386,1.3653 -0.35386,1.36526 0.45934,1.35285 c 0.51352,1.51265 0.5221,1.50018 -0.66859,0.96852 l -0.86064,-0.3843 -1.2488,-1.22493 -1.24877,-1.22492 v -0.35619 -0.35622 h -0.30378 -0.30376 v 1.69419 1.69424 l 0.49144,1.24984 c 0.61753,1.57051 2.10019,3.58509 3.72169,5.0569 1.50073,1.36212 1.53006,1.32409 -0.67893,0.88102 z"
       id="path707-6"
       clip-path="url(#clipPath742)"
       transform="translate(12.236386,-55.549309)" /><rect
       style="opacity:1;fill:#ff7f2a;fill-opacity:1;stroke:none;stroke-width:0.264583;stroke-opacity:1"
       id="rect710"
       width="3.845525"
       height="42.987476"
       x="190.84259"
       y="-115.16441"
       transform="matrix(1.3538121,2.5408917,-2.8221856,1.2188746,-432.68253,-282.161)"
       clip-path="url(#clipPath738)" /><rect
       style="fill:#ff7f2a;fill-opacity:1;stroke:none;stroke-width:0.264583;stroke-opacity:1"
       id="rect710-7"
       width="3.845525"
       height="42.987476"
       x="29.661177"
       y="221.03627"
       transform="matrix(-1.3538121,2.5408917,2.8221856,1.2188746,-432.68253,-282.161)"
       clip-path="url(#clipPath737)" /><text
       xml:space="preserve"
       style="font-style:normal;font-variant:normal;font-weight:normal;font-stretch:normal;font-size:3.175px;font-family:'Tempus Sans ITC';-inkscape-font-specification:'Tempus Sans ITC';white-space:pre;inline-size:20.7312;display:inline;opacity:1;fill:#999999;fill-opacity:1;stroke:none;stroke-width:0.264583;stroke-opacity:1"
       x="92.704628"
       y="144.2072"
       id="text712"
       transform="matrix(8.802146,0,0,13.047895,-709.70286,-1729.7631)"><tspan
         x="92.704628"
         y="144.2072"
         id="tspan6"><tspan
           style="font-family:'Bauhaus 93';-inkscape-font-specification:'Bauhaus 93, '"
           id="tspan5">EPower</tspan></tspan></text><text
       xml:space="preserve"
       style="font-style:normal;font-variant:normal;font-weight:normal;font-stretch:normal;font-size:3.175px;font-family:'Tempus Sans ITC';-inkscape-font-specification:'Tempus Sans ITC';white-space:pre;inline-size:20.7312;display:inline;fill:#666666;fill-opacity:1;stroke:none;stroke-width:0.264583;stroke-opacity:1"
       x="92.704628"
       y="144.2072"
       id="text712-5"
       transform="matrix(8.802146,0,0,13.047895,-709.88878,-1729.2777)"
       clip-path="url(#clipPath712)"><tspan
         x="92.704628"
         y="144.2072"
         id="tspan8"><tspan
           style="font-family:'Bauhaus 93';-inkscape-font-specification:'Bauhaus 93, '"
           id="tspan7">EPower</tspan></tspan></text><rect
       style="opacity:1;fill:#ff7f2a;fill-opacity:1;stroke:none;stroke-width:0.264583;stroke-opacity:1"
       id="rect712"
       width="3.5708447"
       height="28.566757"
       x="155.74376"
       y="137.7522"
       clip-path="url(#clipPath740)"
       transform="matrix(3.1301019,0,0,2.8181174,-432.68253,-282.161)" /><rect
       style="fill:#ff7f2a;fill-opacity:1;stroke:none;stroke-width:0.264583;stroke-opacity:1"
       id="rect712-8"
       width="3.5708447"
       height="28.566757"
       x="214.90175"
       y="137.94682"
       clip-path="url(#clipPath739)"
       transform="matrix(3.1301019,0,0,2.8181174,-432.68253,-282.161)" /><path
       style="fill:#26c8ed;fill-opacity:1"
       d="m 217.27659,183.96823 c -0.10005,-0.10004 -0.1819,-0.71141 -0.1819,-1.3586 v -1.1767 l -0.98447,0.95622 c -0.54146,0.52591 -1.13678,0.95621 -1.32292,0.95621 -0.72013,0 -0.2815,-1.00202 0.98447,-2.24896 l 1.32292,-1.30302 v -2.7273 -2.72731 l -1.12448,0.57134 c -0.61846,0.31423 -1.73215,0.95888 -2.47486,1.43255 l -1.35039,0.86123 -0.1747,0.87351 c -0.0961,0.48043 -0.29667,1.32648 -0.44575,1.88011 l -0.27105,1.0066 h -0.51897 c -0.59302,0 -0.62863,-0.25589 -0.23362,-1.67845 0.34082,-1.22744 0.20742,-1.4218 -0.59169,-0.86208 -0.33283,0.23313 -0.81678,0.42386 -1.07545,0.42386 h -0.47029 v -0.49706 -0.49707 l 0.79375,-0.32878 c 1.09834,-0.45495 0.99475,-0.73552 -0.40137,-1.08707 -1.30765,-0.32927 -1.66734,-0.65423 -1.21967,-1.1019 l 0.29078,-0.29077 1.98456,0.46786 1.98457,0.46787 1.12796,-0.66076 c 0.62038,-0.36342 1.63398,-0.93009 2.25244,-1.25927 1.44965,-0.77158 1.45833,-0.74934 -0.79375,-2.03216 -2.6367,-1.5019 -2.61228,-1.49682 -4.71627,-0.98121 l -1.87139,0.4586 -0.27483,-0.27483 c -0.43751,-0.43751 -0.0103,-0.82744 1.2558,-1.14625 1.38755,-0.34939 1.43671,-0.49346 0.38117,-1.11698 l -0.79375,-0.46888 v -0.51421 c 0,-0.66309 0.38036,-0.64933 1.51993,0.055 l 0.92094,0.56917 -0.21057,-0.8999 c -0.79795,-3.41031 0.38256,-3.12532 1.34264,0.32413 l 0.41432,1.48862 2.30585,1.31337 2.30585,1.31338 0.0759,-2.65147 0.0759,-2.65147 -1.3327,-1.34947 c -1.96112,-1.98578 -1.74612,-3.37363 0.24408,-1.57561 l 1.06905,0.96582 v -1.22141 -1.22141 h 0.52917 0.52916 l 0.0399,0.46302 c 0.022,0.25466 0.0143,0.79044 -0.0169,1.19062 -0.0749,0.9585 0.21805,0.9178 1.28,-0.17786 l 0.87762,-0.90548 0.36491,0.14003 c 0.63979,0.24551 0.40105,0.72726 -1.0903,2.20008 l -1.45521,1.43714 v 2.58872 2.58873 h 0.25058 c 0.30178,0 2.12142,-0.9627 3.60575,-1.90764 l 1.0782,-0.6864 0.47854,-1.81184 c 0.2632,-0.99651 0.57664,-1.91989 0.69653,-2.05197 l 0.21797,-0.24014 0.37957,0.31501 0.37957,0.31502 -0.36883,1.22552 c -0.45417,1.50909 -0.40527,1.56318 0.78069,0.86344 0.52288,-0.3085 1.07366,-0.48491 1.22397,-0.39201 0.54372,0.33604 0.25404,0.94917 -0.65275,1.38158 -1.20738,0.57576 -1.1684,0.74891 0.24888,1.10579 1.27114,0.32008 1.69319,0.70887 1.25029,1.15176 l -0.28035,0.28035 -1.55281,-0.43569 c -2.16382,-0.60714 -2.3046,-0.58183 -4.79459,0.86183 l -2.21817,1.28607 2.35046,1.39022 2.35046,1.39022 1.63093,-0.43306 c 0.89701,-0.23818 1.87927,-0.43306 2.18281,-0.43306 h 0.55189 v 0.50591 0.50591 l -0.9976,0.16854 c -0.54868,0.0927 -1.15454,0.26554 -1.34634,0.38408 l -0.34874,0.21553 0.94946,0.5868 c 1.03399,0.63904 1.18437,0.99928 0.5231,1.25303 l -0.42637,0.16361 -0.78258,-0.46227 c -0.94478,-0.5581 -1.11216,-0.44794 -0.75334,0.49585 0.14959,0.39345 0.27199,1.00528 0.27199,1.35961 v 0.64423 h -0.47619 -0.47618 l -0.48764,-1.95824 -0.48763,-1.95824 -2.26366,-1.2829 c -1.24502,-0.7056 -2.37034,-1.32634 -2.50072,-1.37942 l -0.23706,-0.0965 0.0911,2.8043 0.0911,2.80429 1.38907,1.3668 c 0.76398,0.75174 1.38906,1.52753 1.38906,1.72399 0,0.66195 -0.94803,0.36392 -1.86633,-0.5867 l -0.9118,-0.9439 -0.13229,1.25411 c -0.12457,1.18091 -0.46459,1.6684 -0.87643,1.25655 z m 24.05334,-0.0237 c -0.087,-0.087 -0.15816,-0.61456 -0.15816,-1.17239 0,-1.22892 -0.12992,-1.24856 -1.22673,-0.18549 l -0.85506,0.82875 -0.41431,-0.15899 c -0.64549,-0.24769 -0.51804,-0.50504 1.04089,-2.10175 l 1.45521,-1.49048 v -2.65735 c 0,-1.46151 -0.0543,-2.6573 -0.12065,-2.6573 -0.0663,0 -0.69143,0.32866 -1.38906,0.73036 -0.69763,0.4017 -1.56607,0.88461 -1.92987,1.07313 -1.23115,0.63796 -1.46595,0.97093 -1.99086,2.82321 l -0.52386,1.84857 -0.46243,0.0891 -0.46243,0.089 v -0.66363 c 0,-0.365 0.12239,-0.98556 0.27198,-1.37901 0.35517,-0.93418 0.21184,-1.03354 -0.76342,-0.52921 -1.78668,0.92393 -2.3131,0.0312 -0.56893,-0.96478 l 1.05629,-0.60321 -1.38565,-0.40857 -1.38566,-0.40858 -0.0869,-0.45132 -0.0869,-0.45132 0.48242,-6.9e-4 c 0.26533,-3.8e-4 1.2642,0.18899 2.2197,0.42082 l 1.73728,0.42151 2.32854,-1.37536 2.32854,-1.37537 -2.34603,-1.37076 -2.34603,-1.37077 -1.71406,0.47323 c -0.94274,0.26027 -1.925,0.47322 -2.18281,0.47322 h -0.46875 v -0.50471 -0.50472 l 1.32292,-0.33905 c 1.57062,-0.40254 1.61622,-0.53031 0.39687,-1.11178 -0.95015,-0.45309 -1.2205,-1.14752 -0.54732,-1.40584 0.2083,-0.0799 0.74262,0.1237 1.18737,0.45253 1.00708,0.74457 1.11409,0.6427 0.75158,-0.71544 -0.15879,-0.59491 -0.20803,-1.29188 -0.10943,-1.54883 l 0.17927,-0.46717 0.36077,0.29941 c 0.19842,0.16467 0.50462,0.86269 0.68045,1.55115 0.5311,2.07949 0.72425,2.37404 2.0467,3.12127 0.69929,0.39513 1.70497,0.99244 2.23484,1.32737 1.25321,0.79215 1.28556,0.73534 1.28556,-2.25784 v -2.54462 l -1.45521,-1.43714 c -0.80036,-0.79042 -1.4552,-1.59002 -1.4552,-1.77689 0,-0.61293 0.99834,-0.3558 1.76265,0.45398 1.00094,1.0605 1.14776,1.00725 1.14776,-0.41628 v -1.21002 l 0.46302,0.0879 0.46302,0.0879 0.1323,1.16926 0.13229,1.16927 1.03014,-0.97409 1.03015,-0.97408 0.36218,0.30058 0.36218,0.30058 -0.31898,0.42792 c -0.17544,0.23535 -0.83615,0.97225 -1.46825,1.63755 l -1.14927,1.20964 0.0759,2.66807 0.0759,2.66807 2.31485,-1.35341 c 1.27317,-0.74437 2.36776,-1.53684 2.43242,-1.76104 0.0647,-0.2242 0.31134,-1.09224 0.54819,-1.92899 l 0.43063,-1.52135 h 0.54346 0.54347 l -0.15258,0.76288 c -0.0839,0.41959 -0.23648,1.09717 -0.33902,1.50575 l -0.18645,0.74287 0.98772,-0.58277 c 0.54325,-0.32052 1.09764,-0.51484 1.23199,-0.4318 0.47586,0.29409 0.23387,0.88971 -0.54947,1.35245 -1.05744,0.62464 -1.00687,0.76747 0.39687,1.12093 l 1.19063,0.29981 v 0.52535 c 0,0.63328 -0.14113,0.6404 -2.18665,0.11035 -1.93329,-0.50096 -2.29877,-0.42217 -4.67641,1.00818 l -1.85811,1.11781 0.32569,0.31689 c 0.17912,0.17429 1.21045,0.81564 2.29184,1.42522 l 1.96615,1.10834 1.77587,-0.42863 c 2.22262,-0.53646 2.36162,-0.53423 2.36162,0.0378 v 0.46645 l -1.38907,0.41273 -1.38906,0.41273 0.99219,0.49274 0.99219,0.49274 v 0.48016 0.48016 h -0.40619 c -0.2234,0 -0.70337,-0.19472 -1.06659,-0.43271 -0.86956,-0.56976 -1.00389,-0.37506 -0.64944,0.94128 0.3112,1.1557 0.2028,1.6081 -0.38531,1.6081 h -0.35963 l -0.48459,-1.88112 -0.48459,-1.88112 -0.66152,-0.45465 c -0.36384,-0.25006 -1.46519,-0.89766 -2.44746,-1.43912 l -1.78593,-0.98447 v 2.73397 2.73396 l 1.4552,1.43713 c 1.56171,1.54231 1.68401,1.7809 1.03967,2.02815 l -0.41554,0.15946 -1.03967,-1.01521 -1.03966,-1.01521 v 1.21602 1.21601 l -0.37101,0.14237 c -0.20406,0.0783 -0.44218,0.0712 -0.52917,-0.0158 z m -24.05334,-25.64084 c -0.10005,-0.10004 -0.1819,-0.722 -0.1819,-1.38212 v -1.20023 l -1.00334,0.97974 c -0.55184,0.53886 -1.14716,0.97974 -1.32292,0.97974 -0.69373,0 -0.25503,-0.88973 1.00334,-2.03491 l 1.32292,-1.20392 v -2.89838 -2.89837 l -1.38906,0.7758 c -0.76399,0.42669 -1.8941,1.06071 -2.51136,1.40893 -0.61727,0.34823 -1.12328,0.78377 -1.12448,0.96786 -0.001,0.1841 -0.2003,1.04731 -0.44244,1.91823 l -0.44025,1.58351 h -0.51447 -0.51447 l 0.17376,-0.69233 c 0.57852,-2.30503 0.50537,-2.57148 -0.4977,-1.8128 -0.28247,0.21365 -0.73769,0.38846 -1.01158,0.38846 h -0.498 l 0.0855,-0.43739 c 0.0471,-0.24056 0.54818,-0.67733 1.11361,-0.9706 l 1.02805,-0.5332 -1.29264,-0.34064 c -0.71095,-0.18736 -1.38193,-0.3459 -1.49107,-0.35233 -0.26949,-0.0159 -0.25253,-0.74076 0.0213,-0.90999 0.12084,-0.0747 0.86498,0.0359 1.65364,0.24583 2.11939,0.56405 2.42787,0.507 4.90163,-0.90653 l 2.26534,-1.29444 -2.29608,-1.3514 c -2.57662,-1.51651 -2.54517,-1.51005 -4.53485,-0.93163 -0.79416,0.23086 -1.62606,0.34986 -1.84866,0.26444 -0.73202,-0.2809 -0.21226,-0.79699 1.22003,-1.21142 l 1.4086,-0.40758 -1.09478,-0.52479 -1.09477,-0.52479 -0.003,-0.46302 -0.003,-0.46302 h 0.42218 c 0.23219,0 0.78708,0.25984 1.23307,0.57741 l 0.81089,0.57741 -0.19812,-1.04043 c -0.10897,-0.57224 -0.21736,-1.27484 -0.24088,-1.56134 l -0.0428,-0.52091 0.42071,-0.0857 0.4207,-0.0857 0.47685,1.79719 c 0.53959,2.03366 3.60332,4.8399 5.284,4.8399 0.0795,0 0.14462,-1.24202 0.14462,-2.76005 v -2.76004 l -1.32292,-1.25254 c -1.24601,-1.17973 -1.71694,-2.22321 -1.00334,-2.22321 0.17576,0 0.77108,0.44089 1.32292,0.97974 l 1.00334,0.97974 v -1.21601 -1.21602 l 0.37101,-0.14237 c 0.55081,-0.21136 0.68732,0.0509 0.68732,1.32048 0,1.38815 0.1767,1.42246 1.13576,0.22048 0.74954,-0.93939 1.33259,-1.16267 1.65861,-0.63517 l 0.17976,0.29086 -1.48706,1.50275 -1.48707,1.50274 v 2.70431 c 0,1.48737 0.0903,2.70431 0.20057,2.70431 0.11032,0 1.21165,-0.58799 2.4474,-1.30664 l 2.24682,-1.30664 0.55434,-1.93451 0.55433,-1.9345 0.47595,-0.0929 0.47594,-0.0929 -0.17024,1.01893 c -0.0936,0.5604 -0.24943,1.30863 -0.34621,1.66272 l -0.17598,0.6438 0.9763,-0.60338 c 0.94482,-0.58394 1.75662,-0.59631 1.75662,-0.0268 0,0.15245 -0.41672,0.47589 -0.92605,0.71877 -1.17482,0.56023 -1.16361,0.7552 0.0661,1.1513 0.5457,0.17577 1.14606,0.4419 1.33413,0.59139 l 0.34194,0.27181 -0.25799,0.25799 -0.25799,0.25799 -1.96202,-0.46205 -1.96201,-0.46204 -1.16465,0.68453 c -0.64055,0.37649 -1.64089,0.94044 -2.22297,1.25321 -0.58209,0.31277 -1.10918,0.6148 -1.17131,0.67118 -0.17999,0.1633 0.76099,0.78753 2.80345,1.85976 l 1.89673,0.99573 1.91911,-0.46058 1.9191,-0.46059 0.24892,0.24893 c 0.40063,0.40062 0.0207,0.72851 -1.25919,1.08687 -1.43812,0.40265 -1.45621,0.49148 -0.25808,1.2677 0.91539,0.59304 1.01391,1.11546 0.21035,1.11546 -0.22361,0 -0.77161,-0.25993 -1.21778,-0.57763 l -0.81121,-0.57764 0.17506,0.84222 c 0.0963,0.46322 0.25188,1.21147 0.34578,1.66277 l 0.17073,0.82055 -0.49996,-0.0963 -0.49996,-0.0963 -0.52047,-1.89988 -0.52047,-1.89987 -2.34345,-1.33794 c -1.2889,-0.73586 -2.39482,-1.33794 -2.45759,-1.33794 -0.0628,0 -0.11414,1.24061 -0.11414,2.75691 v 2.75691 l 1.45521,1.38886 c 1.55254,1.48174 1.69376,1.75364 1.04089,2.00417 l -0.41431,0.15899 -0.85505,-0.82875 c -1.09909,-1.06528 -1.18017,-1.04782 -1.27767,0.27516 -0.077,1.04488 -0.42314,1.50882 -0.8255,1.10646 z m 24.07708,0 c -0.10004,-0.10004 -0.1819,-0.63831 -0.1819,-1.19614 0,-1.24626 -0.18546,-1.26174 -1.30298,-0.10876 l -0.87762,0.90547 -0.36491,-0.14003 c -0.64051,-0.24579 -0.40059,-0.72771 1.09978,-2.20912 l 1.46468,-1.44617 -0.0395,-2.71198 c -0.0217,-1.49158 -0.0673,-2.71198 -0.10114,-2.71198 -0.0339,0 -1.06214,0.59523 -2.28503,1.32273 -1.2229,0.7275 -2.29097,1.32281 -2.37351,1.32292 -0.0825,10e-5 -0.35828,0.88344 -0.61278,1.96296 l -0.46273,1.96277 -0.37093,0.14234 c -0.69941,0.26839 -0.80294,-1.09086 -0.2023,-2.65611 l 0.15454,-0.40272 -1.10517,0.56381 c -1.79292,0.91468 -2.34814,-0.0246 -0.624,-1.05558 l 0.99218,-0.59331 -1.38906,-0.39275 -1.38906,-0.39274 v -0.3713 c 0,-0.63639 0.68952,-0.67914 2.56024,-0.15871 l 1.80538,0.50224 2.34498,-1.37832 2.34497,-1.37833 -1.81581,-1.05143 c -0.99869,-0.57828 -2.0949,-1.19689 -2.43602,-1.37467 l -0.62022,-0.32324 -1.67814,0.45425 c -1.71809,0.46507 -2.50538,0.40044 -2.50538,-0.20566 v -0.34246 l 1.38906,-0.3962 1.38906,-0.39619 -0.99218,-0.61415 c -0.54571,-0.33777 -0.99219,-0.78302 -0.99219,-0.98943 v -0.3753 h 0.53847 c 0.29617,0 0.83566,0.19472 1.19889,0.43272 0.83959,0.55012 0.96237,0.41319 0.63936,-0.71308 -0.14303,-0.49872 -0.26005,-1.11592 -0.26005,-1.37154 v -0.46478 h 0.48488 0.48488 l 0.48721,1.95658 0.48722,1.95656 2.31575,1.35073 c 1.27367,0.7429 2.38403,1.35073 2.46749,1.35073 0.0834,0 0.15173,-1.19947 0.15173,-2.66548 v -2.66547 l -1.48052,-1.55218 -1.48052,-1.55217 0.17322,-0.28027 c 0.2949,-0.47717 0.80531,-0.31308 1.5972,0.51347 1.00038,1.04418 1.14486,1.00569 1.24155,-0.33072 l 0.0814,-1.12448 h 0.39688 0.39687 l 0.1323,1.17677 0.13229,1.17678 0.9929,-0.87408 0.9929,-0.87408 0.39616,0.15202 c 0.62331,0.23919 0.49287,0.48807 -1.05905,2.02071 l -1.4552,1.43714 v 2.74379 2.74379 l 1.78593,-0.98904 c 0.98227,-0.54398 2.08362,-1.196 2.44746,-1.44894 l 0.66152,-0.4599 0.48459,-1.88112 0.48459,-1.88114 h 0.35963 c 0.58811,0 0.69651,0.45241 0.38531,1.60812 -0.35084,1.30293 -0.23047,1.49763 0.57648,0.93242 0.33283,-0.23312 0.81678,-0.42386 1.07544,-0.42386 h 0.4703 l -0.003,0.46302 -0.003,0.46302 -0.97143,0.55742 -0.97143,0.55741 1.37172,0.32907 c 1.47297,0.35336 1.86849,0.67706 1.39989,1.14567 l -0.2945,0.2945 -1.95144,-0.48595 -1.95144,-0.48594 -2.2801,1.29287 c -2.74231,1.55496 -2.71445,1.34995 -0.36536,2.68803 2.6367,1.5019 2.61228,1.49682 4.71628,0.98121 l 1.87138,-0.45861 0.27484,0.27484 c 0.4375,0.4375 0.0103,0.82744 -1.2558,1.14625 -1.25442,0.31586 -1.48918,0.62679 -0.66965,0.8869 0.70766,0.2246 1.17024,0.85179 0.98475,1.33517 l -0.15667,0.40828 -1.06355,-0.54258 c -0.58496,-0.29842 -1.06355,-0.47382 -1.06355,-0.38979 0,0.084 0.13514,0.68951 0.30031,1.34548 l 0.30032,1.19268 -0.23638,0.23638 c -0.45055,0.45055 -0.90616,-0.18468 -1.41923,-1.97878 -0.28354,-0.99152 -0.54913,-1.8316 -0.59018,-1.86686 -0.041,-0.0352 -1.08667,-0.67108 -2.32359,-1.41295 l -2.24896,-1.34886 -0.0758,2.67133 -0.0758,2.67134 1.49086,1.56301 1.49086,1.56301 -0.32038,0.38604 -0.32039,0.38604 -0.72134,-0.51364 c -0.39674,-0.2825 -0.88936,-0.7176 -1.09472,-0.96688 l -0.37337,-0.45323 -0.13229,1.14794 c -0.12555,1.08942 -0.47663,1.55026 -0.87644,1.15045 z"
       id="path708-2"
       clip-path="url(#clipPath741)"
       transform="matrix(1.5335067,0,0,1.4939288,-283.14991,-81.235993)" /><path
       style="opacity:1;fill:url(#linearGradient753);fill-opacity:1;stroke:none;stroke-width:0.322616;stroke-opacity:1"
       id="path746"
       d="m 121.76716,120.76912 c 1.8449,-0.86264 3.65469,-1.79314 5.41475,-2.83196 1.36957,-0.89272 2.25664,-1.73447 2.70681,-3.37079 0.30483,-1.39466 0.0679,-2.62275 -0.37803,-3.9423 -0.46395,-1.31022 -1.27984,-2.37571 -2.27453,-3.28575 -1.79042,-1.30347 -1.10596,-0.82888 -4.97286,-2.97476 -0.15523,-0.0862 -0.3394,-0.0958 -0.508,-0.14757 -0.4322,-0.13299 -0.85985,-0.25418 -1.27495,-0.43671 -1.50051,-1.13705 0.24384,0.20029 3.52365,2.06533 0.0918,0.0522 -0.15022,-0.15251 -0.21694,-0.23658 -0.21416,-0.26984 -0.38497,-0.57318 -0.54304,-0.88043 -0.52627,-1.0863 -0.59445,-2.2468 -0.45359,-3.43307 0.30715,-1.556345 1.13146,-2.918612 2.04937,-4.158556 0.72155,-0.928191 1.56695,-1.728076 2.53911,-2.357078 1.3346,-0.695996 2.707,-1.307897 4.10253,-1.857929 0,0 -3.83636,-2.693602 -3.83636,-2.693602 v 0 c -1.42079,0.586972 -2.84639,1.174745 -4.205,1.908425 -0.9835,0.698975 -1.85781,1.534598 -2.58733,2.52107 -0.94998,1.308659 -1.79769,2.76288 -2.16578,4.374193 -0.19081,1.224507 -0.2154,2.488537 0.2803,3.646467 0.77217,2.27328 3.13156,3.2546 5.21558,4.12647 0.42181,0.13779 0.85047,0.25717 1.26809,0.40848 0.1588,0.0575 0.61461,0.27822 0.47206,0.18517 -1.57639,-1.0291 -4.97763,-3.0358 -3.01044,-1.87268 1.0417,0.79091 1.86696,1.81271 2.39214,3.04992 0.43086,1.18662 0.74577,2.38423 0.48462,3.661 -0.37234,1.48944 -1.21303,2.28804 -2.45257,3.0885 -1.7462,1.05585 -3.54553,2.00637 -5.4614,2.6845 z" /><path
       style="fill:url(#linearGradient751);fill-opacity:1;stroke:none;stroke-width:0.322616;stroke-opacity:1"
       id="path746-7"
       d="m 138.79902,121.6089 c 1.8449,-0.86264 3.65469,-1.79314 5.41475,-2.83196 1.36957,-0.89272 2.25664,-1.73447 2.70681,-3.37079 0.30483,-1.39466 0.0679,-2.62275 -0.37803,-3.9423 -0.46395,-1.31022 -1.27984,-2.37571 -2.27453,-3.28575 -1.79042,-1.30347 -1.10596,-0.82888 -4.97286,-2.97476 -0.15523,-0.0862 -0.3394,-0.0958 -0.508,-0.14757 -0.4322,-0.13299 -0.85985,-0.25418 -1.27495,-0.43671 -1.50051,-1.13705 0.24384,0.20029 3.52365,2.06533 0.0918,0.0522 -0.15022,-0.15251 -0.21694,-0.23658 -0.21416,-0.26984 -0.38497,-0.57318 -0.54304,-0.88043 -0.52627,-1.0863 -0.59445,-2.2468 -0.45359,-3.43307 0.30715,-1.55634 1.13146,-2.918611 2.04937,-4.158551 0.72155,-0.928191 1.56695,-1.728076 2.53911,-2.357078 1.3346,-0.695996 2.707,-1.307897 4.10253,-1.857929 0,0 -3.83636,-2.693602 -3.83636,-2.693602 v 0 c -1.42079,0.586972 -2.84639,1.174745 -4.205,1.908425 -0.9835,0.698975 -1.85781,1.534598 -2.58733,2.52107 -0.94998,1.308659 -1.79769,2.76288 -2.16578,4.374194 -0.19081,1.224511 -0.2154,2.488531 0.2803,3.646461 0.77217,2.27328 3.13156,3.2546 5.21558,4.12647 0.42181,0.13779 0.85047,0.25717 1.26809,0.40848 0.1588,0.0575 0.61461,0.27822 0.47206,0.18517 -1.57639,-1.0291 -4.97763,-3.0358 -3.01044,-1.87268 1.0417,0.79091 1.86696,1.81271 2.39214,3.04992 0.43086,1.18662 0.74577,2.38423 0.48462,3.661 -0.37234,1.48944 -1.21303,2.28804 -2.45257,3.0885 -1.7462,1.05585 -3.54553,2.00637 -5.4614,2.6845 z" /><path
       style="fill:url(#linearGradient749);fill-opacity:1;stroke:none;stroke-width:0.322616;stroke-opacity:1"
       id="path746-70"
       d="m 158.13174,122.14818 c 1.8449,-0.86264 3.65469,-1.79314 5.41475,-2.83196 1.36957,-0.89272 2.25664,-1.73447 2.70681,-3.37079 0.30483,-1.39466 0.0679,-2.62275 -0.37803,-3.9423 -0.46395,-1.31022 -1.27984,-2.37571 -2.27453,-3.28575 -1.79042,-1.30347 -1.10596,-0.82888 -4.97286,-2.97476 -0.15523,-0.0862 -0.3394,-0.0958 -0.508,-0.14757 -0.4322,-0.13299 -0.85985,-0.25418 -1.27495,-0.43671 -1.50051,-1.13705 0.24384,0.20029 3.52365,2.06533 0.0918,0.0522 -0.15022,-0.15251 -0.21694,-0.23658 -0.21416,-0.26984 -0.38497,-0.57318 -0.54304,-0.88043 -0.52627,-1.0863 -0.59445,-2.2468 -0.45359,-3.43307 0.30715,-1.55635 1.13146,-2.918622 2.04937,-4.158564 0.72155,-0.9282 1.56695,-1.72808 2.53911,-2.357082 1.3346,-0.695996 2.707,-1.307897 4.10253,-1.857929 0,0 -3.83636,-2.693602 -3.83636,-2.693602 v 0 c -1.42079,0.586972 -2.84639,1.174745 -4.205,1.908425 -0.9835,0.698975 -1.85781,1.534598 -2.58733,2.52107 -0.94998,1.308658 -1.79769,2.76288 -2.16578,4.374192 -0.19081,1.22451 -0.2154,2.48855 0.2803,3.64648 0.77217,2.27328 3.13156,3.2546 5.21558,4.12647 0.42181,0.13779 0.85047,0.25717 1.26809,0.40848 0.1588,0.0575 0.61461,0.27822 0.47206,0.18517 -1.57639,-1.0291 -4.97763,-3.0358 -3.01044,-1.87268 1.0417,0.79091 1.86696,1.81271 2.39214,3.04992 0.43086,1.18662 0.74577,2.38423 0.48462,3.661 -0.37234,1.48944 -1.21303,2.28804 -2.45257,3.0885 -1.7462,1.05585 -3.54553,2.00637 -5.4614,2.6845 z" /><path
       style="fill:url(#linearGradient747);fill-opacity:1;stroke:none;stroke-width:0.322616;stroke-opacity:1"
       id="path746-2"
       d="m 176.67276,122.39257 c 1.8449,-0.86264 3.65469,-1.79314 5.41475,-2.83196 1.36957,-0.89272 2.25664,-1.73447 2.70681,-3.37079 0.30483,-1.39466 0.0679,-2.62275 -0.37803,-3.9423 -0.46395,-1.31022 -1.27984,-2.37571 -2.27453,-3.28575 -1.79042,-1.30347 -1.10596,-0.82888 -4.97286,-2.97476 -0.15523,-0.0862 -0.3394,-0.0958 -0.508,-0.14757 -0.4322,-0.13299 -0.85985,-0.25418 -1.27495,-0.43671 -1.50051,-1.13705 0.24384,0.20029 3.52365,2.06533 0.0918,0.0522 -0.15022,-0.15251 -0.21694,-0.23658 -0.21416,-0.26984 -0.38497,-0.57318 -0.54304,-0.88043 -0.52627,-1.0863 -0.59445,-2.2468 -0.45359,-3.43307 0.30715,-1.55635 1.13146,-2.918624 2.04937,-4.158564 0.72155,-0.9282 1.56695,-1.728081 2.53911,-2.357083 1.3346,-0.695996 2.707,-1.307897 4.10253,-1.857929 0,0 -3.83636,-2.693602 -3.83636,-2.693602 v 0 c -1.42079,0.586972 -2.84639,1.174745 -4.205,1.908425 -0.9835,0.698975 -1.85781,1.534598 -2.58733,2.52107 -0.94998,1.308659 -1.79769,2.762879 -2.16578,4.374193 -0.19081,1.22452 -0.2154,2.48855 0.2803,3.64648 0.77217,2.27328 3.13156,3.2546 5.21558,4.12647 0.42181,0.13779 0.85047,0.25717 1.26809,0.40848 0.1588,0.0575 0.61461,0.27822 0.47206,0.18517 -1.57639,-1.0291 -4.97763,-3.0358 -3.01044,-1.87268 1.0417,0.79091 1.86696,1.81271 2.39214,3.04992 0.43086,1.18662 0.74577,2.38423 0.48462,3.661 -0.37234,1.48944 -1.21303,2.28804 -2.45257,3.0885 -1.7462,1.05585 -3.54553,2.00637 -5.4614,2.6845 z" /></g></svg>
